<svg width="28" height="23" viewBox="0 0 28 23" fill="none" xmlns="http://www.w3.org/2000/svg">
<path fill-rule="evenodd" clip-rule="evenodd" d="M0 1.5C0 0.671573 0.671573 0 1.5 0H5C5.82843 0 6.5 0.671573 6.5 1.5C6.5 2.32843 5.82843 3 5 3H3V13.35H7.17004C7.99847 13.35 8.67004 14.0216 8.67004 14.85V16.8987L11.7794 13.7893C12.0607 13.508 12.4422 13.35 12.84 13.35H20.19C22.4916 13.35 24.36 11.4816 24.36 9.17999V3H15.35C14.5216 3 13.85 2.32843 13.85 1.5C13.85 0.671573 14.5216 0 15.35 0H25.86C26.6885 0 27.36 0.671573 27.36 1.5V9.17999C27.36 13.1384 24.1484 16.35 20.19 16.35H13.4613L8.2307 21.5807C7.80171 22.0096 7.15653 22.138 6.59602 21.9058C6.03551 21.6736 5.67004 21.1267 5.67004 20.52V16.35H1.5C0.671573 16.35 0 15.6784 0 14.85V1.5Z" fill="#920061"/>
</svg>
